<svg width="164" height="52" viewBox="0 0 164 52" fill="none" xmlns="http://www.w3.org/2000/svg">
<g clip-path="url(#clip0_0_7787)">
<path d="M51.6014 36V16.56H54.8549V36H51.6014ZM68.9833 36V28.98C68.9833 28.521 68.9518 28.0125 68.8888 27.4545C68.8258 26.8965 68.6773 26.361 68.4433 25.848C68.2183 25.326 67.8763 24.8985 67.4173 24.5655C66.9673 24.2325 66.3553 24.066 65.5813 24.066C65.1673 24.066 64.7578 24.1335 64.3528 24.2685C63.9478 24.4035 63.5788 24.6375 63.2458 24.9705C62.9218 25.2945 62.6608 25.7445 62.4628 26.3205C62.2648 26.8875 62.1658 27.6165 62.1658 28.5075L60.2353 27.684C60.2353 26.442 60.4738 25.317 60.9508 24.309C61.4368 23.301 62.1478 22.5 63.0838 21.906C64.0198 21.303 65.1718 21.0015 66.5398 21.0015C67.6198 21.0015 68.5108 21.1815 69.2128 21.5415C69.9148 21.9015 70.4728 22.3605 70.8868 22.9185C71.3008 23.4765 71.6068 24.0705 71.8048 24.7005C72.0028 25.3305 72.1288 25.929 72.1828 26.496C72.2458 27.054 72.2773 27.5085 72.2773 27.8595V36H68.9833ZM58.8718 36V21.42H61.7743V25.9425H62.1658V36H58.8718ZM84.0217 36.405C82.0777 36.405 80.4127 35.982 79.0267 35.136C77.6407 34.281 76.5742 33.093 75.8272 31.572C75.0892 30.051 74.7202 28.287 74.7202 26.28C74.7202 24.273 75.0892 22.509 75.8272 20.988C76.5742 19.467 77.6407 18.2835 79.0267 17.4375C80.4127 16.5825 82.0777 16.155 84.0217 16.155C86.2627 16.155 88.1302 16.7175 89.6242 17.8425C91.1182 18.9585 92.1667 20.466 92.7697 22.365L89.4892 23.2695C89.1112 22.0005 88.4677 21.0105 87.5587 20.2995C86.6497 19.5795 85.4707 19.2195 84.0217 19.2195C82.7167 19.2195 81.6277 19.512 80.7547 20.097C79.8907 20.682 79.2382 21.5055 78.7972 22.5675C78.3652 23.6205 78.1447 24.858 78.1357 26.28C78.1357 27.702 78.3517 28.944 78.7837 30.006C79.2247 31.059 79.8817 31.878 80.7547 32.463C81.6277 33.048 82.7167 33.3405 84.0217 33.3405C85.4707 33.3405 86.6497 32.9805 87.5587 32.2605C88.4677 31.5405 89.1112 30.5505 89.4892 29.2905L92.7697 30.195C92.1667 32.094 91.1182 33.606 89.6242 34.731C88.1302 35.847 86.2627 36.405 84.0217 36.405ZM95.7338 36V21.42H98.6093V24.9705L98.2583 24.5115C98.4383 24.0255 98.6768 23.5845 98.9738 23.1885C99.2798 22.7835 99.6443 22.4505 100.067 22.1895C100.427 21.9465 100.823 21.7575 101.255 21.6225C101.696 21.4785 102.146 21.393 102.605 21.366C103.064 21.33 103.51 21.348 103.942 21.42V24.4575C103.51 24.3315 103.01 24.291 102.443 24.336C101.885 24.381 101.381 24.5385 100.931 24.8085C100.481 25.0515 100.112 25.362 99.8243 25.74C99.5453 26.118 99.3383 26.55 99.2033 27.036C99.0683 27.513 99.0008 28.0305 99.0008 28.5885V36H95.7338ZM107.987 42.48L110.795 34.7715L110.849 37.0395L104.49 21.42H107.879L112.388 32.976H111.524L115.911 21.42H119.165L111.038 42.48H107.987ZM128.185 36.405C126.763 36.405 125.57 36.0675 124.607 35.3925C123.644 34.7175 122.92 33.7995 122.434 32.6385C121.948 31.4685 121.705 30.159 121.705 28.71C121.705 27.243 121.948 25.929 122.434 24.768C122.92 23.607 123.631 22.6935 124.567 22.0275C125.512 21.3525 126.677 21.015 128.063 21.015C129.44 21.015 130.633 21.3525 131.641 22.0275C132.658 22.6935 133.445 23.607 134.003 24.768C134.561 25.92 134.84 27.234 134.84 28.71C134.84 30.168 134.566 31.4775 134.017 32.6385C133.468 33.7995 132.694 34.7175 131.695 35.3925C130.696 36.0675 129.526 36.405 128.185 36.405ZM121.151 42.48V21.42H124.027V31.653H124.432V42.48H121.151ZM127.685 33.489C128.531 33.489 129.229 33.2775 129.778 32.8545C130.327 32.4315 130.732 31.86 130.993 31.14C131.263 30.411 131.398 29.601 131.398 28.71C131.398 27.828 131.263 27.027 130.993 26.307C130.723 25.578 130.304 25.002 129.737 24.579C129.17 24.147 128.45 23.931 127.577 23.931C126.749 23.931 126.074 24.1335 125.552 24.5385C125.03 24.9345 124.643 25.4925 124.391 26.2125C124.148 26.9235 124.027 27.756 124.027 28.71C124.027 29.655 124.148 30.4875 124.391 31.2075C124.643 31.9275 125.035 32.49 125.566 32.895C126.106 33.291 126.812 33.489 127.685 33.489ZM146.361 36C145.398 36.18 144.453 36.2565 143.526 36.2295C142.608 36.2115 141.785 36.045 141.056 35.73C140.327 35.406 139.773 34.8975 139.395 34.2045C139.062 33.5745 138.887 32.931 138.869 32.274C138.851 31.617 138.842 30.8745 138.842 30.0465V17.37H142.082V29.8575C142.082 30.4425 142.086 30.9555 142.095 31.3965C142.113 31.8375 142.208 32.1975 142.379 32.4765C142.703 33.0165 143.22 33.318 143.931 33.381C144.642 33.444 145.452 33.408 146.361 33.273V36ZM136.196 23.9715V21.42H146.361V23.9715H136.196ZM155.198 36.405C153.74 36.405 152.466 36.0765 151.377 35.4195C150.288 34.7625 149.442 33.858 148.839 32.706C148.245 31.545 147.948 30.213 147.948 28.71C147.948 27.18 148.254 25.839 148.866 24.687C149.478 23.535 150.329 22.635 151.418 21.987C152.507 21.339 153.767 21.015 155.198 21.015C156.665 21.015 157.943 21.3435 159.032 22.0005C160.121 22.6575 160.967 23.5665 161.57 24.7275C162.173 25.8795 162.474 27.207 162.474 28.71C162.474 30.222 162.168 31.5585 161.556 32.7195C160.953 33.8715 160.107 34.776 159.018 35.433C157.929 36.081 156.656 36.405 155.198 36.405ZM155.198 33.354C156.494 33.354 157.457 32.922 158.087 32.058C158.717 31.194 159.032 30.078 159.032 28.71C159.032 27.297 158.712 26.172 158.073 25.335C157.434 24.489 156.476 24.066 155.198 24.066C154.325 24.066 153.605 24.264 153.038 24.66C152.48 25.047 152.066 25.5915 151.796 26.2935C151.526 26.9865 151.391 27.792 151.391 28.71C151.391 30.123 151.71 31.2525 152.349 32.0985C152.997 32.9355 153.947 33.354 155.198 33.354Z" fill="white"/>
<path d="M19.5553 47C8.77158 47 0 38.029 0 27C0 15.971 8.77158 7 19.5553 7C24.4687 7 29.109 8.84304 32.7164 12.2035C33.0924 12.5538 33.0914 13.1519 32.7321 13.5199L31.1053 15.1862C30.7458 15.5546 30.164 15.5524 29.7837 15.2065C26.9621 12.6405 23.3631 11.2383 19.5553 11.2383C11.0554 11.2383 4.14405 18.3115 4.14405 27C4.14405 35.6885 11.06 42.7617 19.5553 42.7617C23.2393 42.7617 26.7468 41.4383 29.5314 39.0136C29.9187 38.6764 30.5 38.6866 30.852 39.0621L32.4461 40.7632C32.7981 41.1387 32.787 41.7368 32.4039 42.0789C28.8419 45.2595 24.3123 47 19.5553 47Z" fill="#E0F64B"/>
<path d="M19.5 36C24.7467 36 29 31.7467 29 26.5C29 21.2533 24.7467 17 19.5 17C14.2533 17 10 21.2533 10 26.5C10 31.7467 14.2533 36 19.5 36Z" fill="#E0F64B"/>
<path d="M19.5 32C22.5376 32 25 29.5376 25 26.5C25 23.4624 22.5376 21 19.5 21C16.4624 21 14 23.4624 14 26.5C14 29.5376 16.4624 32 19.5 32Z" fill="#171717"/>
</g>
<defs>
<clipPath id="clip0_0_7787">
<rect width="164" height="52" fill="white"/>
</clipPath>
</defs>
</svg>
