<svg width="52" height="52" viewBox="0 0 52 52" fill="none" xmlns="http://www.w3.org/2000/svg">
<path d="M19.5553 47C8.77158 47 0 38.029 0 27C0 15.971 8.77158 7 19.5553 7C24.4687 7 29.109 8.84304 32.7164 12.2035C33.0924 12.5538 33.0914 13.1519 32.7321 13.5199L31.1053 15.1862C30.7458 15.5546 30.164 15.5524 29.7837 15.2065C26.9621 12.6405 23.3631 11.2383 19.5553 11.2383C11.0554 11.2383 4.14405 18.3115 4.14405 27C4.14405 35.6885 11.06 42.7617 19.5553 42.7617C23.2393 42.7617 26.7468 41.4383 29.5314 39.0136C29.9187 38.6764 30.5 38.6866 30.852 39.0621L32.4461 40.7632C32.7981 41.1387 32.787 41.7368 32.4039 42.0789C28.8419 45.2595 24.3123 47 19.5553 47Z" fill="#E0F64B"/>
<path d="M19.5 36C24.7467 36 29 31.7467 29 26.5C29 21.2533 24.7467 17 19.5 17C14.2533 17 10 21.2533 10 26.5C10 31.7467 14.2533 36 19.5 36Z" fill="#E0F64B"/>
<path d="M19.5 32C22.5376 32 25 29.5376 25 26.5C25 23.4624 22.5376 21 19.5 21C16.4624 21 14 23.4624 14 26.5C14 29.5376 16.4624 32 19.5 32Z" fill="#171717"/>
</svg>
